# xmcd
#
# Track frame offsets:
#	300
#	14558
#	28460
#	40203
#	59239
#	79623
#	95392
#	113200
#	125323
#	146163
#	159237
#	172577
#
# Disc length: 2465 seconds
#
# Revision: 1
# Processed by: cddbd v1.5.1PL2 Copyright (c) Steve Scherf et al.
# Submitted via: audiograbber 1.82.02
#
DISCID=9f099d0c
DTITLE=Pure Country Band - Nasville, TN
DYEAR=1900
DGENRE=Country
TTITLE0=Peace of Mind
TTITLE1=Santa Fe
TTITLE2=Green Snakes on the Ceiling
TTITLE3=Empty Glasses
TTITLE4=Lookin' for love
TTITLE5=Last Call For Alcohol
TTITLE6=Cowboys Ain't Supposed to Cry
TTITLE7=Jack's Truck Stop and Cafe
TTITLE8=Little Ole Wine Drinker Me
TTITLE9=That´s The Way love Goes
TTITLE10=Don't it Make my Brown Eyes Blue
TTITLE11=Nashville, TN
EXTD=
EXTT0=
EXTT1=
EXTT2=
EXTT3=
EXTT4=
EXTT5=
EXTT6=
EXTT7=
EXTT8=
EXTT9=
EXTT10=
EXTT11=
PLAYORDER=
